<svg id="Layer_1" data-name="Layer 1" xmlns="http://www.w3.org/2000/svg" xmlns:xlink="http://www.w3.org/1999/xlink" viewBox="0 0 800 400"><defs><linearGradient id="linear-gradient" x1="565.88" y1="173.73" x2="413.64" y2="324.05" gradientUnits="userSpaceOnUse"><stop offset="0" stop-color="#fcee21" stop-opacity="0.5"/><stop offset="1" stop-color="#fff" stop-opacity="0"/></linearGradient></defs><path d="M404,218H372.9V186.9H404Zm-29.9-1.2h28.7V188.1H374.1Z" style="fill:#231f20"/><path d="M445.4,159.7a16.9,16.9,0,0,1-12.1-5.2,13.1,13.1,0,0,1,12.1-7.9,13.2,13.2,0,0,1,12.2,7.9A16.9,16.9,0,0,1,445.4,159.7Z" style="fill:#c5cfe4"/><path d="M445.4,160.3A17.4,17.4,0,1,1,462.8,143,17.3,17.3,0,0,1,445.4,160.3Zm0-33.5A16.2,16.2,0,1,0,461.6,143,16.2,16.2,0,0,0,445.4,126.8Z"/><circle cx="445.4" cy="140.8" r="4" style="fill:#c5cfe4"/><path d="M445.4,145.5a4.7,4.7,0,1,1,4.7-4.7A4.7,4.7,0,0,1,445.4,145.5Zm0-8.1a3.4,3.4,0,0,0-3.4,3.4,3.5,3.5,0,0,0,3.4,3.5,3.5,3.5,0,0,0,3.5-3.5A3.5,3.5,0,0,0,445.4,137.4Z" style="fill:#c5cfe4"/><path d="M445.4,219.2a16.9,16.9,0,0,1-12.1-5.2,13.2,13.2,0,0,1,12.1-8,13.3,13.3,0,0,1,12.2,8A16.9,16.9,0,0,1,445.4,219.2Z" style="fill:#c5cfe4"/><path d="M445.4,219.8a17.4,17.4,0,1,1,17.4-17.3A17.4,17.4,0,0,1,445.4,219.8Zm0-33.5a16.2,16.2,0,1,0,16.2,16.2A16.2,16.2,0,0,0,445.4,186.3Z"/><circle cx="445.4" cy="200.3" r="4" style="fill:#c5cfe4"/><path d="M445.4,205a4.7,4.7,0,1,1,4.7-4.7A4.7,4.7,0,0,1,445.4,205Zm0-8.1a3.4,3.4,0,0,0-3.4,3.4,3.5,3.5,0,0,0,3.4,3.5,3.5,3.5,0,0,0,3.5-3.5A3.5,3.5,0,0,0,445.4,196.9Z" style="fill:#c5cfe4"/><rect x="373.3" y="127.9" width="30.2" height="30.17" transform="translate(776.7 286) rotate(180)" style="fill:#ec6868"/><rect x="387.8" y="134" width="1.2" height="17.99" transform="translate(12.6 316.5) rotate(-45)" style="fill:#fff"/><rect x="379.4" y="142.4" width="18" height="1.2" transform="translate(12.5 316.3) rotate(-45)" style="fill:#fff"/><rect x="124.5" y="80.2" width="205.1" height="142.97" style="fill:#dfe6f2"/><rect x="135.6" y="87.1" width="203.7" height="129.26" style="fill:#fff"/><path d="M339.7,216.8H135.1V86.6H339.7Zm-203.6-1H338.7V87.6H136.1Z" style="fill:#231f20"/><rect x="135.6" y="73.3" width="203.7" height="13.72" style="fill:#fff"/><path d="M339.7,87.6H135.1V72.8H339.7Zm-203.6-1H338.7V73.8H136.1Z" style="fill:#231f20"/><circle cx="146.1" cy="80.6" r="3.2" style="fill:#254898"/><rect x="158.6" y="107.1" width="29.9" height="29.91" style="fill:#fff"/><path d="M189,137.5H158.1V106.6H189Zm-29.9-1H188V107.6H159.1Z" style="fill:#231f20"/><rect x="158.6" y="166.6" width="29.9" height="29.91" style="fill:#fff"/><path d="M189,197H158.1V166.1H189Zm-29.9-1H188V167.1H159.1Z" style="fill:#231f20"/><polygon points="170.4 132.3 161.3 124.1 162 123.3 170.3 130.9 186.8 112.2 187.5 112.9 170.4 132.3" style="fill:#231f20"/><path d="M230.5,138.8a16.5,16.5,0,0,1-12.1-5.2,13.2,13.2,0,0,1,24.2,0A16.5,16.5,0,0,1,230.5,138.8Z" style="fill:#2bd67b"/><path d="M230.5,139.3a17.3,17.3,0,1,1,17.2-17.2A17.3,17.3,0,0,1,230.5,139.3Zm0-33.5a16.3,16.3,0,1,0,16.2,16.3A16.3,16.3,0,0,0,230.5,105.8Z" style="fill:#0c152e"/><circle cx="230.5" cy="119.9" r="4" style="fill:#dfe6f2"/><path d="M230.5,124.5a4.7,4.7,0,0,1-4.6-4.6,4.6,4.6,0,0,1,4.6-4.5,4.5,4.5,0,0,1,4.5,4.5A4.6,4.6,0,0,1,230.5,124.5Zm0-8.1a3.6,3.6,0,1,0,3.5,3.5A3.6,3.6,0,0,0,230.5,116.4Z" style="fill:#dfe6f2"/><path d="M230.5,198.3a16.5,16.5,0,0,1-12.1-5.2,13.2,13.2,0,0,1,24.2,0A16.5,16.5,0,0,1,230.5,198.3Z" style="fill:#4070f4"/><path d="M230.5,198.8a17.3,17.3,0,1,1,17.2-17.2A17.3,17.3,0,0,1,230.5,198.8Zm0-33.5a16.3,16.3,0,1,0,16.2,16.3A16.3,16.3,0,0,0,230.5,165.3Z" style="fill:#0c152e"/><circle cx="230.5" cy="179.4" r="4" style="fill:#dfe6f2"/><path d="M230.5,184a4.7,4.7,0,0,1-4.6-4.6,4.6,4.6,0,0,1,4.6-4.5,4.5,4.5,0,0,1,4.5,4.5A4.6,4.6,0,0,1,230.5,184Zm0-8.1a3.6,3.6,0,1,0,3.5,3.5A3.6,3.6,0,0,0,230.5,175.9Z" style="fill:#dfe6f2"/><rect x="269.2" y="116.7" width="24.5" height="1" style="fill:#0c152e"/><rect x="269.2" y="126.4" width="49.4" height="1" style="fill:#0c152e"/><rect x="269.2" y="176.2" width="24.5" height="1" style="fill:#0c152e"/><rect x="269.2" y="185.9" width="49.4" height="1" style="fill:#0c152e"/><path d="M489,294.3H101.8V30.5H489Zm-385.7-1.5H487.4V32H103.3Z" style="fill:#231f20"/><rect x="83.5" y="31.2" width="19.1" height="262.33" transform="translate(186 324.8) rotate(180)" style="fill:#dfe6f2"/><path d="M103.3,294.3H82.7V30.5h20.6Zm-19.1-1.5h17.6V32H84.2Z" style="fill:#0c152e"/><rect x="234.7" y="293.6" width="119" height="71.41" style="fill:#fff"/><path d="M354.6,365.7H234V292.8H354.6Zm-119.1-1.5H353V294.3H235.5Z" style="fill:#231f20"/><rect x="212" y="293.6" width="22.8" height="71.41" transform="translate(446.7 658.5) rotate(180)" style="fill:#dfe6f2"/><path d="M235.5,365.7H211.2V292.8h24.3Zm-22.8-1.5H234V294.3H212.7Z" style="fill:#0c152e"/><rect x="205.3" y="365" width="178" height="15.53" style="fill:#fff"/><path d="M384,381.3H204.5V364.2H384Zm-178-1.6H382.5v-14H206Z" style="fill:#231f20"/><rect x="169.4" y="365" width="35.9" height="15.53" style="fill:#dfe6f2"/><path d="M206,381.3H168.6V364.2H206Zm-35.9-1.6h34.4v-14H170.1Z" style="fill:#0c152e"/><path d="M570.6,310.9h11.1c-8.6-11-19.8-23.4-23.3-16.9C556.7,297.3,563.1,304.3,570.6,310.9Z" style="fill:#2bd67b"/><path d="M592,311.1c.5-3.7,2-37.3,3-48s2.4-42.1,11-42.1,14,32.3,13.7,35.9" style="fill:#2bd67b"/><path d="M607,311.1c13.5-17.6,31.9-45.4,30.7-66.7a2.3,2.3,0,0,0-2.6-2.2c-19.4,1.4-33.9,47.9-39.4,68.7Z" style="fill:#2bd67b"/><path d="M560.7,292.2c5.2,2.1,12.7,10.7,19,18.8h2C574.5,301.6,565.5,291.5,560.7,292.2Z" style="fill:#0c152e"/><path d="M592,311.1c-1-21.1-3.7-56.3-11.4-56.6-10.8-.3,1.9,53.3,3.1,56.4Z" style="fill:#2bd67b"/><path d="M595.1,310.9h.6c3.8-14.5,12.1-41.6,23.3-57.1l.4-.5c0-.4-.3-2.1-.5-3.7-12.2,14.1-22.1,45.4-26.5,61.4h2.7Z" style="fill:#0c152e"/><path d="M634.6,288.2a.9.9,0,0,0-1.3-.1L609.1,311h12.5l9.7-5.9c1.6-1.3,1.4-.9,2-.5a11.6,11.6,0,0,0,9,2.8C641.9,297.6,636.4,290.4,634.6,288.2Z" style="fill:#2bd67b"/><path d="M630.4,381.3H560.9V310.4h69.5Zm-68.5-1h67.5V311.4H561.9Z" style="fill:#0c152e"/><path d="M326.1,54.8a33.1,33.1,0,1,0,0,66.1H331V54.8Z" style="fill:#dfe6f2;stroke:#0c152e;stroke-linecap:round;stroke-linejoin:round"/><path d="M331,64.7V54.8h-4.9a32.9,32.9,0,0,0-23.6,9.9Z" style="fill:#f7f9fb;stroke:#0c152e;stroke-linecap:round;stroke-linejoin:round"/><path d="M295.8,101.1a32.9,32.9,0,0,0,30.3,19.8H331V101.1Z" style="fill:#c5cfe4;stroke:#0c152e;stroke-linecap:round;stroke-linejoin:round"/><circle cx="331" cy="87.8" r="33.1" style="fill:#fff;stroke:#0c152e;stroke-linecap:round;stroke-linejoin:round"/><circle cx="331" cy="87.8" r="25.8" style="fill:#dfe6f2"/><path d="M331,62h-1.3a25.8,25.8,0,0,1,0,51.5H331A25.9,25.9,0,1,0,331,62Z" style="fill:#c5cfe4"/><path d="M329.9,94.2l-.4,1.6-.9-.2.5-1.6a4.4,4.4,0,0,1-3.3-3.5l1-.3c0,1.4.9,2.4,2.5,2.9l1.4-5.2c-1.6-1.1-3-2.2-2.4-4.2a3.3,3.3,0,0,1,4.2-2.3l.4-1.6.8.2-.4,1.6a3.8,3.8,0,0,1,2.5,3l-.9.3a3.1,3.1,0,0,0-1.9-2.4l-1.3,5c1.6,1.1,3,2.2,2.5,4.3A3.5,3.5,0,0,1,329.9,94.2ZM331,87l1.2-4.7a2.4,2.4,0,0,0-3,1.6C328.8,85.3,329.7,86.1,331,87Zm2.2,4.6c.4-1.4-.5-2.3-1.8-3.2l-1.3,4.9A2.5,2.5,0,0,0,333.2,91.6Z"/><path d="M478.6,254.3a25,25,0,1,0,0,49.9h3.7V254.3Z" style="fill:#dfe6f2;stroke:#0c152e;stroke-linecap:round;stroke-linejoin:round"/><path d="M482.3,261.8v-7.5h-3.7a24.4,24.4,0,0,0-17.8,7.5Z" style="fill:#f7f9fb;stroke:#0c152e;stroke-linecap:round;stroke-linejoin:round"/><path d="M455.7,289.2a25.1,25.1,0,0,0,22.9,15h3.7v-15Z" style="fill:#c5cfe4;stroke:#0c152e;stroke-linecap:round;stroke-linejoin:round"/><circle cx="482.3" cy="279.2" r="25" style="fill:#fff;stroke:#0c152e;stroke-linecap:round;stroke-linejoin:round"/><circle cx="482.3" cy="279.2" r="19.5" style="fill:#dfe6f2"/><path d="M482.3,259.8h-1a19.5,19.5,0,0,1,0,38.9h1a19.5,19.5,0,1,0,0-38.9Z" style="fill:#c5cfe4"/><path d="M484.4,283.7l.4,1.1-.6.2-.4-1.1c-1.5.4-2.8.2-3.6-.8l.5-.5a2.5,2.5,0,0,0,2.8.6l-1.4-3.8c-1.5,0-2.8,0-3.3-1.6a2.5,2.5,0,0,1,1.6-3.2l-.4-1.1.6-.3.4,1.2a2.9,2.9,0,0,1,2.9.8l-.5.5a2.2,2.2,0,0,0-2.2-.6l1.4,3.6c1.4,0,2.8.1,3.4,1.6A2.7,2.7,0,0,1,484.4,283.7Zm-2.5-5-1.3-3.4a1.7,1.7,0,0,0-1.1,2.3C479.8,278.6,480.7,278.7,481.9,278.7Zm3.4,1.9c-.4-1.1-1.3-1.2-2.5-1.2l1.3,3.6A2,2,0,0,0,485.3,280.6Z"/><polygon points="539.1 419.9 653.1 228.9 564.7 140.6 94.1 419.9 539.1 419.9" style="opacity:0.5;fill:url(#linear-gradient)"/><path d="M689.9,346.5a12.8,12.8,0,0,0,11.2-6.5l54.2-93.8A12.9,12.9,0,0,0,733,233.3l-54.2,93.9a12.9,12.9,0,0,0,4.7,17.5A12.7,12.7,0,0,0,689.9,346.5Z" style="fill:#dfe6f2;stroke:#0c152e;stroke-linecap:round;stroke-linejoin:round"/><path d="M744.1,252.6a12.8,12.8,0,0,0,10.4-5.2c3.8-5.1,3-12.4-1.5-17L676.6,154a12.9,12.9,0,0,0-19,.9,13.1,13.1,0,0,0,1.1,17.6L735,248.8A12.6,12.6,0,0,0,744.1,252.6Z" style="fill:#dfe6f2;stroke:#0c152e;stroke-linecap:round;stroke-linejoin:round"/><circle cx="744.1" cy="239.8" r="20.3" style="fill:#fff;stroke:#0d162e;stroke-linecap:round;stroke-linejoin:round"/><circle cx="744.1" cy="239.8" r="9.6" style="fill:#4ee58b"/><path d="M579.9,154.5l59.3,59.3a44.5,44.5,0,0,1-59.3-59.3Z" style="fill:#f7e36d;stroke:#fff;stroke-linecap:round;stroke-linejoin:round"/><path d="M632.7,114H685a0,0,0,0,1,0,0v21a20.6,20.6,0,0,1-20.6,20.6H653.3a20.6,20.6,0,0,1-20.6-20.6V114a0,0,0,0,1,0,0Z" transform="translate(1029.4 696) rotate(-135)" style="fill:#fff;stroke:#0d162e;stroke-linecap:round;stroke-linejoin:round"/><path d="M653.1,140.6a62.5,62.5,0,0,0-88.4,0l88.4,88.3A62.4,62.4,0,0,0,653.1,140.6Z" style="fill:#fff"/><path d="M653.1,228.9l-29-29c24.4-24.4,37.4-50.9,29-59.3A62.4,62.4,0,0,1,653.1,228.9Z" style="fill:#dfe6f2"/><path d="M753.8,372.3H626.1a67.7,67.7,0,0,1,127.7,0Z" style="fill:#fff"/><path d="M753.8,372.3H711.6C708.5,346,700,327.2,690,327.2A67.7,67.7,0,0,1,753.8,372.3Z" style="fill:#dfe6f2"/><rect x="685.6" y="304.1" width="8.7" height="144.96" transform="translate(1066.6 -313.3) rotate(90)" style="fill:#fff;stroke:#0d162e;stroke-linecap:round;stroke-linejoin:round"/><path d="M753.8,372.3H626.1a67.7,67.7,0,0,1,127.7,0Z" style="fill:none;stroke:#0d162e;stroke-linecap:round;stroke-linejoin:round"/><path d="M653.1,140.6a62.5,62.5,0,0,0-88.4,0l88.4,88.3A62.4,62.4,0,0,0,653.1,140.6Z" style="fill:none;stroke:#0d162e;stroke-linecap:round;stroke-linejoin:round"/><line x1="8.2" y1="380.9" x2="788.7" y2="380.9" style="fill:none;stroke:#0c152e;stroke-linecap:round;stroke-linejoin:round"/><rect x="24.8" y="335.9" width="280.9" height="45.41" style="fill:#4070f4"/><rect x="119.9" y="336.6" width="1" height="44.67" style="fill:#0c152e"/><rect x="66.6" y="287.7" width="258.4" height="48.22" style="fill:#fff"/><polygon points="305.8 342.4 66.3 342.4 61.4 335.9 305.8 335.9 305.8 342.4" style="fill:#254898"/><rect x="70.4" y="303.4" width="253.7" height="1" style="fill:#0c152e"/><rect x="70.4" y="315.7" width="253.7" height="1" style="fill:#0c152e"/><polygon points="70.4 327.2 70.4 292.6 336 292.6 336 284 70.4 284 61.4 284 61.4 292.6 61.4 327.2 61.4 327.2 61.4 335.9 61.4 335.9 70.4 335.9 336 335.9 336 327.2 70.4 327.2" style="fill:#4070f4"/><path d="M157.9,328.1h-88V291.8h88Zm-87-1h86V292.8h-86Z" style="fill:#0c152e"/><path d="M324.6,328.1H156.9V291.8H324.6Zm-166.7-1H323.6V292.8H157.9Z" style="fill:#0c152e"/><rect x="210.5" y="339.1" width="8.3" height="42.15" style="fill:#254898"/><path d="M176.6,303.3v91.1l19.8-11.8,18.3,11.8V303.3Z" style="fill:#2bd67b"/></svg>